<?xml version="1.0" standalone="no"?><!DOCTYPE svg PUBLIC "-//W3C//DTD SVG 1.1//EN" "http://www.w3.org/Graphics/SVG/1.1/DTD/svg11.dtd"><svg t="1764391512219" class="icon" viewBox="0 0 1024 1024" version="1.1" xmlns="http://www.w3.org/2000/svg" p-id="1323" xmlns:xlink="http://www.w3.org/1999/xlink" width="200" height="200"><path d="M112.432855 564.497588H569.727023c-45.036458 47.170443-112.999573 108.715969-142.038962 208.899908h-384.547176l69.288062-208.899908z" fill="#F6C667" p-id="1324"></path><path d="M868.457527 344.798779c-45.024733-97.18229-120.472427-186.946443-267.94797-287.251542L635.950901 0c154.303511 104.948275 239.49484 203.299176 291.152122 314.794015 47.795786 103.169954 65.653252 215.610626 86.473282 346.674809 1.332763 8.383511 2.673344 16.845191 4.041283 25.385039L1024 726.805496h-147.971908v90.389496h-65.227237V692.528855v-0.007817c-0.007817-0.152427-0.093802-1.946382-0.762137-5.667175a142.285191 142.285191 0 0 0-3.263512-13.710657 206.504061 206.504061 0 0 0-14.570504-36.762382c-10.943511-21.277313-25.150534-39.263756-42.238046-49.695267-40.733313 30.731725-82.084153 73.071389-113.660091 134.85142-35.312366 69.092641-59.563969 164.785832-54.772275 299.91084l-65.180336 2.552183c-5.147359-145.243847 20.835664-253.393099 62.491359-334.898809 41.651786-81.501802 97.811542-134.077557 149.582168-170.042626l13.097038-9.098748 14.937893 5.084824c46.044824 15.672672 75.674382 54.80745 93.125374 88.751878a276.569893 276.569893 0 0 1 19.639695 49.581924c0.465099 1.621985 0.914565 3.251786 1.344488 4.877679h76.350535c-20.100885-125.881649-36.934351-223.806534-78.464977-313.453435zM389.581191 65.258504c140.307542 0 281.173985 61.979359 335.707847 228.660763l12.58113 38.458626-38.196763 6.515298c-100.42626 17.134412-142.015511 20.659786-240.804153 20.659786V290.999695c80.555969 0 120.22229-2.302046 189.295389-13.034504-49.906321-102.00916-148.464366-144.161221-258.579542-144.161222V65.254595zM123.309924 437.56458c-0.125069-2.68116-0.257954-5.280244-0.383023-7.793343a1401.590229 1401.590229 0 0 1-0.558901-11.674382c-0.625344-14.988702-0.562809-26.166718 1.102168-36.676397 3.025099-19.033893 12.221557-41.628336 47.057099-79.492885l-46.892946-47.643359c-39.994626 43.469191-58.508702 78.148397-64.500275 115.85661-2.833588 17.861374-2.599084 34.917618-1.92684 50.969405 0.19542 4.68226 0.426015 9.23945 0.652702 13.784916 0.590168 11.736916 1.176427 23.395664 1.176428 36.946076 0 6.683359 1.860397 13.222107 5.350595 18.807206l0.023451 0.039084a86.449832 86.449832 0 0 1 3.068091 5.862596 134.245618 134.245618 0 0 1 7.68 20.386198c5.104366 17.665954 8.492947 42.042626 2.110535 69.843054-4.944122 21.539176-17.966901 40.717679-31.529039 55.460152a180.329527 180.329527 0 0 1-17.353282 16.509069c-2.251237 1.864305-4.041282 3.243969-5.190351 4.103817-0.574534 0.426015-0.984916 0.723053-1.211603 0.887206l-0.144611 0.101618-0.035175 0.023451-0.011726 0.011725L0 678.775206l9.11829 25.72116 0.175878 0.500275 0.558901 1.582901 2.149618 6.183084a2459.796519 2459.796519 0 0 1 31.200733 96.98687c8.539847 28.660275 16.954626 59.19658 23.208061 86.860214 6.409771 28.374962 9.942962 51.192183 9.942962 65.465649h65.227236c0-22.785954-5.131725-52.192733-11.709557-81.306382-6.741985-29.824977-15.645313-62.041893-24.427481-91.507298a2530.374351 2530.374351 0 0 0-27.085191-85.085801 248.038595 248.038595 0 0 0 14.269558-14.289099c17.658137-19.194137 39.279389-48.866687 48.042015-87.024367 8.676641-37.786382 5.463939-71.320427-0.691786-96.748458h455.730809v-68.549374H123.306015z" fill="#000000" p-id="1325"></path><path d="M43.148702 807.670229v-34.272733-34.276641h661.691603c11.760366 0 19.99145 6.245618 24.325863 11.06858a37.661313 37.661313 0 0 1 6.878779 11.178015c1.868214 4.670534 2.63426 9.130015 2.989923 11.482871 0.812947 5.362321 1.152977 11.650931 1.324947 17.493984 0.355664 12.143389 0.113344 28.179542-0.320489 44.649527-0.355664 13.397985-0.824672 27.073466-1.270229 39.936-0.691786 20.038351-1.31713 38.102962-1.31713 50.086107h-65.223328c0-13.042321 0.703511-33.588763 1.430474-54.854351 0.429924-12.569405 0.871573-25.392855 1.180335-37.067237 0.242321-9.282443 0.410382-17.892641 0.453374-25.424122H261.131725a1338.39145 1338.39145 0 0 1 7.433771 26.854595c10.333802 38.951084 21.984733 90.287878 21.984733 127.554443H225.319084c0-26.752977-9.137832-69.757069-19.588886-109.141985a1320.940458 1320.940458 0 0 0-12.913343-45.267053H43.148702z m631.475787-24.017099l0.011725 0.082076a2.958656 2.958656 0 0 1-0.011725-0.082076z" fill="#000000" p-id="1326"></path><path d="M819.164824 426.355298c0 27.913771-12.40916 50.539481-27.714442 50.539481-15.309191 0-27.718351-22.62571-27.718351-50.539481 0-27.913771 12.40916-50.539481 27.718351-50.539481 15.305282 0 27.714443 22.62571 27.714442 50.539481z" fill="#000000" p-id="1327"></path></svg>