<?xml version="1.0" standalone="no"?><!DOCTYPE svg PUBLIC "-//W3C//DTD SVG 1.1//EN" "http://www.w3.org/Graphics/SVG/1.1/DTD/svg11.dtd"><svg t="1765001680355" class="icon" viewBox="0 0 1024 1024" version="1.1" xmlns="http://www.w3.org/2000/svg" p-id="15900" xmlns:xlink="http://www.w3.org/1999/xlink" width="200" height="200"><path d="M938.666667 739.541333v-229.930666c0-102.613333 0-153.941333-25.472-195.2-25.514667-41.216-71.424-64.170667-163.2-110.08l-85.333334-42.666667C589.738667 124.16 552.277333 105.472 512 105.472s-77.738667 18.730667-152.661333 56.192l-85.333334 42.666667c-91.776 45.909333-137.685333 68.864-163.2 110.08C85.333333 355.669333 85.333333 407.04 85.333333 509.610667v229.973333c0 26.410667 0 39.594667 1.450667 50.688a170.666667 170.666667 0 0 0 146.944 146.944c11.093333 1.450667 24.32 1.450667 50.730667 1.450667 13.226667 0 19.797333 0 25.344-0.725334a85.333333 85.333333 0 0 0 73.472-73.472c0.725333-5.546667 0.725333-12.16 0.725333-25.344V725.333333c0-39.765333 0-59.648 6.485333-75.306666a85.333333 85.333333 0 0 1 46.208-46.208C452.352 597.333333 472.234667 597.333333 512 597.333333c39.765333 0 59.648 0 75.306667 6.485334a85.333333 85.333333 0 0 1 46.208 46.208C640 665.685333 640 685.568 640 725.333333v113.792c0 13.226667 0 19.797333 0.725333 25.344a85.333333 85.333333 0 0 0 73.472 73.472c5.546667 0.725333 12.16 0.725333 25.344 0.725334 26.453333 0 39.68 0 50.773334-1.450667a170.666667 170.666667 0 0 0 146.901333-146.944c1.450667-11.093333 1.450667-24.32 1.450667-50.730667z" fill="#FFCC00" p-id="15901"></path><path d="M874.666667 739.541333v-229.930666c0-52.608-0.085333-87.253333-2.858667-114.048-2.602667-25.258667-7.168-37.973333-13.056-47.488-5.888-9.514667-15.189333-19.328-36.693333-32.938667-22.656-14.506667-53.632-30.037333-100.693334-53.589333l-85.333333-42.666667c-80.64-40.32-102.4-49.408-124.032-49.408-21.632 0-43.392 9.088-124.032 49.408l-85.333333 42.666667c-47.061333 23.552-78.037333 39.125333-100.693334 53.589333-21.504 13.653333-30.805333 23.424-36.693333 32.938667-5.845333 9.514667-10.453333 22.186667-13.056 47.488-2.773333 26.794667-2.858667 61.44-2.858667 114.048v229.973333c0 28.416 0.128 36.437333 0.896 42.325333a106.666667 106.666667 0 0 0 91.861334 91.861334c5.888 0.768 13.909333 0.896 42.368 0.896a723.2 723.2 0 0 0 17.109333-0.213334 21.333333 21.333333 0 0 0 18.346667-21.248c0.085333-3.114667 0.085333-7.210667 0.085333-14.08v-115.626666c0-18.346667 0-35.114667 0.981333-49.194667 1.024-15.189333 3.370667-31.829333 10.368-48.768a149.333333 149.333333 0 0 1 80.853334-80.853333c16.938667-6.997333 33.578667-9.386667 48.768-10.368 14.08-0.981333 30.890667-0.981333 49.152-0.981334h3.754666c18.261333 0 35.072 0 49.152 0.981334 15.189333 1.024 31.829333 3.370667 48.768 10.368a149.333333 149.333333 0 0 1 80.853334 80.853333c6.997333 16.938667 9.386667 33.578667 10.368 48.768 0.981333 14.08 0.981333 30.890667 0.981333 49.152v115.626667a723.413333 723.413333 0 0 0 0.213333 17.152 21.333333 21.333333 0 0 0 21.248 18.346666c3.114667 0.085333 7.210667 0.085333 14.08 0.085334 28.458667 0 36.48-0.128 42.368-0.896a106.666667 106.666667 0 0 0 91.861334-91.861334c0.768-5.888 0.896-13.909333 0.896-42.368z m64-229.930666v229.973333c0 26.410667 0 39.594667-1.450667 50.688a170.666667 170.666667 0 0 1-146.944 146.944c-11.093333 1.450667-24.32 1.450667-50.730667 1.450667-13.226667 0-19.797333 0-25.344-0.725334a85.333333 85.333333 0 0 1-73.472-73.472c-0.725333-5.546667-0.725333-12.16-0.725333-25.344V725.333333c0-39.765333 0-59.648-6.485333-75.306666a85.333333 85.333333 0 0 0-46.208-46.208C571.648 597.333333 551.765333 597.333333 512 597.333333c-39.765333 0-59.648 0-75.306667 6.485334a85.333333 85.333333 0 0 0-46.208 46.208C384 665.685333 384 685.568 384 725.333333v113.792c0 13.226667 0 19.797333-0.725333 25.344a85.333333 85.333333 0 0 1-73.472 73.472c-5.546667 0.725333-12.16 0.725333-25.344 0.725334-26.453333 0-39.68 0-50.773334-1.450667a170.666667 170.666667 0 0 1-146.901333-146.944C85.333333 779.178667 85.333333 765.952 85.333333 739.541333v-229.930666c0-102.613333 0-153.941333 25.472-195.2 25.514667-41.216 71.424-64.170667 163.2-110.08l85.333334-42.666667C434.261333 124.16 471.722667 105.472 512 105.472s77.738667 18.730667 152.661333 56.192l85.333334 42.666667c91.776 45.909333 137.685333 68.864 163.2 110.08 25.472 41.258667 25.472 92.586667 25.472 195.2z" fill="#000000" p-id="15902"></path></svg>