<?xml version="1.0" standalone="no"?><!DOCTYPE svg PUBLIC "-//W3C//DTD SVG 1.1//EN" "http://www.w3.org/Graphics/SVG/1.1/DTD/svg11.dtd"><svg t="1765007509020" class="icon" viewBox="0 0 1024 1024" version="1.1" xmlns="http://www.w3.org/2000/svg" p-id="71071" xmlns:xlink="http://www.w3.org/1999/xlink" width="128" height="128"><path d="M512 1023.999078A512.132659 512.132659 0 0 1 312.709299 40.232924a512.132659 512.132659 0 0 1 398.581402 943.533231A508.784182 508.784182 0 0 1 512 1023.999078zM327.680166 348.159687a20.479982 20.479982 0 0 0-20.479982 20.479981v286.719742a20.479982 20.479982 0 0 0 20.479982 20.479982h368.639668a20.479982 20.479982 0 0 0 20.479982-20.479982V368.639668a20.479982 20.479982 0 0 0-20.479982-20.479981z m366.92959 307.199723H348.160147a20.479982 20.479982 0 0 1-20.479981-20.479981v-34.12989l93.613996-156.026739a10.239991 10.239991 0 0 1 17.561584 0l95.068074 158.412657 56.25851-96.460713a10.239991 10.239991 0 0 1 17.694704 0L694.599516 655.35941zM629.759894 450.559594a25.599977 25.599977 0 1 1 25.599977-25.599976 25.599977 25.599977 0 0 1-25.599977 25.599976z" fill="#FF644E" p-id="71072"></path></svg>